<svg width="16" height="16" viewBox="0 0 16 16" fill="none" xmlns="http://www.w3.org/2000/svg">
<g clip-path="url(#clip0_1_103)">
<path d="M15.25 8.07495C15.25 3.94995 11.875 0.574951 7.75 0.574951C3.625 0.574951 0.25 3.87495 0.25 8.07495C0.25 11.825 3.025 14.9 6.55 15.5V10.25H4.675V8.07495H6.55V6.42495C6.55 4.54995 7.675 3.49995 9.4 3.49995C10.225 3.49995 11.05 3.64995 11.05 3.64995V5.52495H10.075C9.175 5.52495 8.875 6.12495 8.875 6.72495V8.14995H10.975L10.675 10.25H8.95V15.5C12.475 14.9 15.25 11.825 15.25 8.07495Z" fill="#525252"/>
</g>
<defs>
<clipPath id="clip0_1_103">
<rect width="15" height="15" fill="white" transform="translate(0.25 0.5)"/>
</clipPath>
</defs>
</svg>
