<svg width="16" height="16" viewBox="0 0 16 16" fill="none" xmlns="http://www.w3.org/2000/svg">
<g clip-path="url(#clip0_1_98)">
<path d="M8.2499 10.4749C9.61681 10.4749 10.7249 9.36681 10.7249 7.9999C10.7249 6.633 9.61681 5.5249 8.2499 5.5249C6.883 5.5249 5.7749 6.633 5.7749 7.9999C5.7749 9.36681 6.883 10.4749 8.2499 10.4749Z" fill="#525252"/>
<path d="M11.4 0.5H5.1C2.7 0.5 0.75 2.45 0.75 4.85V11.075C0.75 13.55 2.7 15.5 5.1 15.5H11.325C13.725 15.5 15.675 13.55 15.675 11.15V4.85C15.75 2.45 13.8 0.5 11.4 0.5ZM8.25 11.75C6.15 11.75 4.5 10.1 4.5 8C4.5 5.9 6.15 4.25 8.25 4.25C10.35 4.25 12 5.9 12 8C12 10.1 10.35 11.75 8.25 11.75ZM12.6 4.25C12.3 4.25 12 3.95 12 3.65C12 3.35 12.3 3.05 12.6 3.05C12.9 3.05 13.2 3.35 13.2 3.65C13.2 3.95 12.975 4.25 12.6 4.25Z" fill="#525252"/>
</g>
<defs>
<clipPath id="clip0_1_98">
<rect width="15" height="15" fill="white" transform="translate(0.75 0.5)"/>
</clipPath>
</defs>
</svg>
