<svg width="16" height="16" viewBox="0 0 16 16" fill="none" xmlns="http://www.w3.org/2000/svg">
<g clip-path="url(#clip0_1_107)">
<path d="M8.25 0.5C4.125 0.5 0.75 3.875 0.75 8C0.75 9.425 1.125 10.7 1.8 11.825L0.825 15.5L4.575 14.525C5.625 15.125 6.9 15.5 8.25 15.5C12.375 15.5 15.75 12.125 15.75 8C15.75 3.875 12.375 0.5 8.25 0.5ZM5.7 4.475C5.85 4.475 5.925 4.475 6.075 4.475C6.225 4.475 6.375 4.475 6.525 4.775C6.675 5.15 7.05 6.05 7.125 6.125C7.2 6.2 7.2 6.35 7.125 6.425C6.975 6.65 6.975 6.725 6.825 6.875C6.75 6.95 6.675 7.1 6.6 7.175C6.525 7.25 6.375 7.325 6.525 7.55C6.6 7.7 6.975 8.375 7.575 8.825C8.25 9.425 8.85 9.65 9.075 9.725C9.225 9.8 9.375 9.8 9.45 9.65C9.525 9.5 9.9 9.125 10.05 8.9C10.2 8.75 10.275 8.75 10.5 8.825C10.65 8.9 11.55 9.35 11.775 9.425C12 9.5 12.075 9.575 12.15 9.65C12.225 9.725 12.225 10.1 12.075 10.55C11.925 11 11.175 11.375 10.8 11.45C10.425 11.45 10.125 11.6 8.55 11C6.675 10.25 5.475 8.3 5.4 8.225C5.325 8.075 4.65 7.25 4.65 6.275C4.65 5.375 5.1 4.925 5.325 4.7C5.325 4.55 5.55 4.475 5.7 4.475Z" fill="#525252"/>
</g>
<defs>
<clipPath id="clip0_1_107">
<rect width="15" height="15" fill="white" transform="translate(0.75 0.5)"/>
</clipPath>
</defs>
</svg>
