<svg width="16" height="16" viewBox="0 0 16 16" fill="none" xmlns="http://www.w3.org/2000/svg">
<g clip-path="url(#clip0_1_111)">
<path d="M11.5 0.5H4C1.9 0.5 0.25 2.15 0.25 4.25V11.75C0.25 13.85 1.9 15.5 4 15.5H11.5C13.6 15.5 15.25 13.85 15.25 11.75V4.25C15.25 2.15 13.6 0.5 11.5 0.5ZM11.125 8.675L6.025 11.525C5.95 11.6 5.8 11.6 5.65 11.6C5.275 11.6 4.9 11.3 4.9 10.85V5.15C4.9 4.775 5.2 4.4 5.65 4.4C5.8 4.4 5.875 4.4 6.025 4.475L11.125 7.325C11.5 7.55 11.65 7.925 11.425 8.3C11.35 8.45 11.2 8.6 11.125 8.675Z" fill="#525252"/>
</g>
<defs>
<clipPath id="clip0_1_111">
<rect width="15" height="15" fill="white" transform="translate(0.25 0.5)"/>
</clipPath>
</defs>
</svg>
